<?xml version="1.0" standalone="no"?>
<!DOCTYPE svg PUBLIC "-//W3C//DTD SVG 20010904//EN"
 "http://www.w3.org/TR/2001/REC-SVG-20010904/DTD/svg10.dtd">
<svg version="1.0" xmlns="http://www.w3.org/2000/svg"
 width="500.000000pt" height="500.000000pt" viewBox="0 0 500.000000 500.000000"
 preserveAspectRatio="xMidYMid meet">

<g transform="translate(0.000000,500.000000) scale(0.100000,-0.100000)"
fill="#000000" stroke="none">
<path d="M832 3328 c-15 -15 -17 -305 -2 -328 7 -12 13 -12 27 -4 16 10 18 29
21 148 l3 136 133 0 c106 0 136 3 146 15 7 8 10 22 6 30 -4 12 -32 15 -164 15
-109 0 -162 -4 -170 -12z"/>
<path d="M2159 3324 c-11 -14 -11 -18 6 -30 14 -10 54 -14 152 -14 l132 0 3
-142 c3 -135 4 -143 23 -143 19 0 20 7 20 170 l0 170 -161 3 c-139 2 -163 0
-175 -14z"/>
<path d="M1045 3107 c-3 -7 -4 -120 -3 -252 l3 -240 250 0 250 0 0 250 0 250
-248 3 c-194 2 -249 0 -252 -11z m455 -247 l0 -200 -200 0 -200 0 0 200 0 200
200 0 200 0 0 -200z"/>
<path d="M1200 2866 c0 -109 -3 -106 105 -106 50 0 76 4 84 14 8 9 11 45 9 98
l-3 83 -97 3 -98 3 0 -95z"/>
<path d="M1642 3108 c-15 -18 1 -41 24 -36 23 4 26 41 3 46 -9 1 -21 -3 -27
-10z"/>
<path d="M1775 3107 c-3 -7 -4 -120 -3 -252 l3 -240 250 0 250 0 0 250 0 250
-248 3 c-194 2 -249 0 -252 -11z m455 -247 l0 -200 -200 0 -200 0 0 200 0 200
200 0 200 0 0 -200z"/>
<path d="M1926 2938 c-9 -37 -7 -138 4 -159 9 -16 22 -19 94 -19 60 0 87 4 95
14 8 9 11 45 9 98 l-3 83 -96 3 c-93 3 -97 2 -103 -20z"/>
<path d="M1636 3005 c-9 -25 -7 -368 3 -383 5 -8 17 -12 27 -10 18 3 19 15 19
203 0 196 0 200 -21 203 -13 2 -24 -4 -28 -13z"/>
<path d="M3397 2742 c-20 -22 -22 -43 -5 -60 17 -17 42 -15 62 7 19 21 13 47
-15 61 -23 13 -23 13 -42 -8z"/>
<path d="M2512 2737 c-48 -18 -99 -63 -124 -110 -18 -33 -23 -59 -23 -122 0
-86 14 -125 64 -178 48 -52 97 -71 184 -70 l79 1 45 -49 c40 -43 51 -49 87
-49 l40 0 -63 64 -64 64 36 37 c95 98 86 287 -18 373 -61 50 -166 67 -243 39z
m178 -69 c60 -41 75 -71 78 -156 2 -65 -1 -83 -20 -116 -37 -63 -69 -81 -146
-81 -81 0 -124 25 -153 89 -31 69 -22 181 20 230 51 60 158 76 221 34z"/>
<path d="M2892 2728 c2 -15 11 -24 26 -26 22 -3 22 -4 22 -197 l0 -193 -25 -6
c-16 -4 -25 -13 -25 -26 0 -18 7 -20 80 -20 73 0 80 2 80 20 0 13 -9 22 -25
26 -24 6 -25 10 -25 81 l0 74 37 -3 c35 -3 43 -11 110 -100 71 -95 75 -98 113
-98 33 0 40 3 40 20 0 12 -9 22 -23 25 -25 7 -147 166 -131 172 97 33 134 155
69 223 -36 37 -92 50 -220 50 -105 0 -106 0 -103 -22z m258 -57 c31 -22 39
-81 16 -116 -19 -28 -76 -48 -126 -43 l-35 3 -3 79 c-4 109 -3 110 66 102 31
-3 68 -15 82 -25z"/>
<path d="M3934 2590 c-56 -28 -84 -80 -84 -157 0 -112 58 -173 164 -173 59 0
126 26 126 48 0 26 -24 29 -67 10 -39 -17 -52 -19 -84 -9 -45 14 -79 53 -79
92 l0 28 118 3 117 3 -1 43 c-1 51 -26 90 -75 114 -45 23 -85 23 -135 -2z
m138 -48 c5 -5 12 -23 17 -40 l10 -32 -95 0 c-75 0 -94 3 -94 14 0 23 48 74
73 78 25 4 76 -7 89 -20z"/>
<path d="M3342 2583 c2 -10 13 -19 26 -21 21 -3 22 -7 22 -126 0 -121 0 -123
-25 -134 -14 -6 -25 -18 -25 -27 0 -12 15 -15 80 -15 73 0 80 2 80 20 0 13 -9
22 -25 26 l-25 6 0 144 0 144 -56 0 c-47 0 -55 -3 -52 -17z"/>
<path d="M3550 2554 c0 -38 3 -45 18 -42 9 2 18 13 20 26 3 20 9 22 73 22 38
0 69 -3 69 -7 0 -5 -43 -64 -95 -132 -52 -69 -95 -133 -95 -143 0 -16 11 -18
130 -18 l130 0 0 50 c0 38 -4 50 -15 50 -9 0 -15 -9 -15 -25 0 -24 -2 -25 -76
-25 -57 0 -73 3 -68 13 5 6 48 65 96 130 48 65 88 125 88 133 0 11 -24 14
-130 14 l-130 0 0 -46z"/>
<path d="M1044 2509 c-3 -6 1 -18 10 -27 15 -15 17 -15 32 0 19 19 11 38 -16
38 -10 0 -22 -5 -26 -11z"/>
<path d="M1142 2498 c3 -23 3 -23 203 -23 200 0 200 0 203 23 l3 22 -206 0
-206 0 3 -22z"/>
<path d="M1640 2501 c0 -24 13 -33 35 -25 23 9 14 38 -13 42 -16 3 -22 -2 -22
-17z"/>
<path d="M1774 2505 c-12 -32 7 -35 200 -35 157 0 196 3 206 15 25 31 0 35
-201 35 -165 0 -201 -2 -205 -15z"/>
<path d="M2232 2498 c2 -15 10 -23 23 -23 13 0 21 8 23 23 3 18 -1 22 -23 22
-22 0 -26 -4 -23 -22z"/>
<path d="M1045 2377 c-3 -7 -4 -120 -3 -252 l3 -240 250 0 250 0 0 250 0 250
-248 3 c-194 2 -249 0 -252 -11z m455 -242 l0 -205 -200 0 -200 0 0 205 0 205
200 0 200 0 0 -205z"/>
<path d="M1200 2136 c0 -109 -3 -106 105 -106 50 0 76 4 84 14 8 9 11 45 9 98
l-3 83 -97 3 -98 3 0 -95z"/>
<path d="M1642 2378 c-14 -14 -17 -364 -3 -386 5 -8 17 -12 27 -10 18 3 19 15
19 203 0 171 -2 200 -15 203 -9 1 -21 -3 -28 -10z"/>
<path d="M1777 2383 c-13 -13 -7 -110 7 -122 34 -28 62 60 36 110 -11 19 -31
25 -43 12z"/>
<path d="M1867 2384 c-14 -14 -8 -122 7 -127 21 -8 36 13 36 49 0 32 1 33 48
36 39 3 47 6 47 23 0 18 -8 20 -65 23 -36 2 -69 0 -73 -4z"/>
<path d="M2054 2375 c-10 -26 7 -35 71 -35 62 0 78 9 68 38 -7 18 -132 17
-139 -3z"/>
<path d="M2235 2378 c-3 -7 -4 -121 -3 -253 3 -232 4 -240 23 -240 19 0 20 7
20 250 0 230 -1 250 -18 253 -9 2 -19 -3 -22 -10z"/>
<path d="M1967 2303 c-12 -12 -7 -41 7 -46 19 -7 40 18 32 38 -6 15 -28 20
-39 8z"/>
<path d="M2037 2304 c-16 -16 -6 -44 17 -50 31 -7 68 12 64 34 -3 18 -67 30
-81 16z"/>
<path d="M2150 2295 c-15 -18 -5 -35 20 -35 10 0 22 5 25 10 7 11 -12 40 -25
40 -4 0 -13 -7 -20 -15z"/>
<path d="M1774 2216 c-8 -21 3 -36 27 -36 15 0 20 6 17 22 -4 27 -35 37 -44
14z"/>
<path d="M1854 2215 c-8 -19 3 -35 26 -35 22 0 33 23 17 39 -15 15 -37 14 -43
-4z"/>
<path d="M1934 2215 c-10 -25 9 -37 57 -33 36 2 44 7 44 23 0 17 -8 20 -48 23
-36 2 -49 -1 -53 -13z"/>
<path d="M2064 2216 c-3 -7 -4 -35 -2 -62 l3 -49 59 -3 c67 -3 76 3 76 60 0
63 -6 68 -71 68 -41 0 -61 -4 -65 -14z m76 -51 c0 -8 -4 -15 -10 -15 -5 0 -10
7 -10 15 0 8 5 15 10 15 6 0 10 -7 10 -15z"/>
<path d="M1857 2153 c-12 -11 -7 -33 8 -39 20 -8 45 13 38 32 -5 14 -34 19
-46 7z"/>
<path d="M1937 2154 c-4 -4 -7 -15 -7 -25 0 -23 59 -36 90 -19 37 20 21 45
-30 48 -25 2 -49 0 -53 -4z"/>
<path d="M1774 2136 c-3 -8 -4 -31 -2 -52 2 -31 7 -39 23 -39 27 0 42 46 27
80 -13 27 -39 34 -48 11z"/>
<path d="M1857 2083 c-12 -11 -7 -33 8 -39 20 -8 45 13 38 32 -5 14 -34 19
-46 7z"/>
<path d="M1932 2068 c3 -21 8 -23 53 -23 43 0 50 3 50 20 0 17 -8 20 -53 23
-51 3 -53 2 -50 -20z"/>
<path d="M2066 2071 c-9 -14 4 -41 19 -41 17 0 38 27 30 40 -8 12 -42 13 -49
1z"/>
<path d="M2146 2071 c-9 -14 4 -41 19 -41 17 0 38 27 30 40 -8 12 -42 13 -49
1z"/>
<path d="M832 1998 c-14 -14 -17 -305 -4 -326 7 -9 48 -12 173 -10 156 3 164
4 164 23 0 19 -8 20 -142 23 l-143 3 0 137 c0 129 -6 162 -30 162 -3 0 -11 -5
-18 -12z"/>
<path d="M1774 1996 c-3 -7 -4 -35 -2 -62 l3 -49 53 -3 c65 -4 82 8 82 58 0
65 -5 70 -71 70 -41 0 -61 -4 -65 -14z m76 -51 c0 -8 -4 -15 -10 -15 -5 0 -10
7 -10 15 0 8 5 15 10 15 6 0 10 -7 10 -15z"/>
<path d="M1943 1994 c-3 -8 -1 -20 5 -26 16 -16 42 -2 42 22 0 24 -38 28 -47
4z"/>
<path d="M2054 1995 c-10 -26 7 -35 71 -35 62 0 78 9 68 38 -7 18 -132 17
-139 -3z"/>
<path d="M2463 2003 c-10 -4 -13 -42 -13 -149 l0 -144 -144 0 c-111 0 -145 -3
-149 -13 -13 -34 7 -38 174 -35 l164 3 3 166 c3 170 0 184 -35 172z"/>
<path d="M1637 1917 c-8 -21 8 -39 29 -35 27 5 25 42 -2 46 -12 2 -24 -3 -27
-11z"/>
<path d="M1943 1914 c-3 -8 -1 -20 5 -26 16 -16 42 -2 42 22 0 24 -38 28 -47
4z"/>
<path d="M2054 1915 c-10 -26 7 -35 71 -35 62 0 78 9 68 38 -7 18 -132 17
-139 -3z"/>
</g>
</svg>
